<?xml version="1.0" encoding="UTF-8"?>
<svg width="48px" height="48px" viewBox="0 0 48 48" version="1.1" xmlns="http://www.w3.org/2000/svg" xmlns:xlink="http://www.w3.org/1999/xlink">
    <!-- Generator: Sketch 60.1 (88133) - https://sketch.com -->
    <title>Github H Copy 2</title>
    <desc>Created with Sketch.</desc>
    <g id="Page-1" stroke="none" stroke-width="1" fill="none" fill-rule="evenodd">
        <g id="Github-H-Copy-2">
            <rect id="Rectangle-path-Copy-4" fill="#12100E" fill-rule="nonzero" x="0" y="0" width="48" height="48" rx="10"></rect>
            <path d="M8,24.4054189 C8,31.6534115 12.727309,37.801667 19.2839559,39.9709287 C20.1094877,40.1219915 20.4103257,39.6154276 20.4103257,39.1803667 C20.4103257,38.7916318 20.3961448,37.7593694 20.3880414,36.3907406 C15.7984898,37.3817125 14.830136,34.1912664 14.830136,34.1912664 C14.0795605,32.2959319 12.9977593,31.7913822 12.9977593,31.7913822 C11.499647,30.7742261 13.1112066,30.7943678 13.1112066,30.7943678 C14.7673348,30.9101826 15.6384481,32.4852639 15.6384481,32.4852639 C17.1102244,34.9918991 19.5007213,34.2678048 20.4407133,33.8478503 C20.5906259,32.7883966 21.0170662,32.0653094 21.4880751,31.6554257 C17.8243347,31.2415136 13.9721907,29.8336084 13.9721907,23.5473822 C13.9721907,21.7567847 14.6153964,20.2914756 15.6708616,19.1454126 C15.5006906,18.7304934 14.934467,17.0617532 15.8329292,14.803868 C15.8329292,14.803868 17.2175942,14.3627647 20.3698088,16.4857004 C21.685595,16.1211355 23.0976089,15.9398602 24.5005065,15.9328106 C25.9023911,15.9398602 27.3133921,16.1211355 28.6312041,16.4857004 C31.7813929,14.3627647 33.164032,14.803868 33.164032,14.803868 C34.0645201,17.0617532 33.4982964,18.7304934 33.3291384,19.1454126 C34.3866294,20.2914756 35.0247706,21.7567847 35.0247706,23.5473822 C35.0247706,29.8497218 31.166549,31.2364782 27.4916664,31.6423336 C28.0832131,32.1488974 28.6109457,33.1499402 28.6109457,34.6807098 C28.6109457,36.8731344 28.5906873,38.6425832 28.5906873,39.1803667 C28.5906873,39.6194559 28.8884864,40.1300481 29.7251604,39.9699216 C36.2767427,37.7956245 41,31.6513973 41,24.4054189 C41,15.3446728 33.6117438,8 24.4984806,8 C15.3882562,8 8,15.3446728 8,24.4054189 Z" id="Fill-4" fill="#FFFFFF"></path>
        </g>
    </g>
</svg>