<?xml version="1.0" encoding="UTF-8"?>
<svg width="48px" height="48px" viewBox="0 0 48 48" version="1.1" xmlns="http://www.w3.org/2000/svg" xmlns:xlink="http://www.w3.org/1999/xlink">
    <!-- Generator: Sketch 60.1 (88133) - https://sketch.com -->
    <title>iconmonstr-linkedin-3</title>
    <desc>Created with Sketch.</desc>
    <g id="Page-1" stroke="none" stroke-width="1" fill="none" fill-rule="evenodd">
        <g id="iconmonstr-linkedin-3" fill="#000000" fill-rule="nonzero">
            <path d="M38,0 L10,0 C4.478,0 0,4.478 0,10 L0,38 C0,43.522 4.478,48 10,48 L38,48 C43.524,48 48,43.522 48,38 L48,10 C48,4.478 43.524,0 38,0 Z M16,38 L10,38 L10,16 L16,16 L16,38 Z M13,13.464 C11.068,13.464 9.5,11.884 9.5,9.936 C9.5,7.988 11.068,6.408 13,6.408 C14.932,6.408 16.5,7.988 16.5,9.936 C16.5,11.884 14.934,13.464 13,13.464 Z M40,38 L34,38 L34,26.792 C34,20.056 26,20.566 26,26.792 L26,38 L20,38 L20,16 L26,16 L26,19.53 C28.792,14.358 40,13.976 40,24.482 L40,38 Z" id="Shape"></path>
        </g>
    </g>
</svg>