<?xml version="1.0" encoding="UTF-8"?>
<svg width="48px" height="48px" viewBox="0 0 48 48" version="1.1" xmlns="http://www.w3.org/2000/svg" xmlns:xlink="http://www.w3.org/1999/xlink">
    <!-- Generator: Sketch 60.1 (88133) - https://sketch.com -->
    <title>Monogram</title>
    <desc>Created with Sketch.</desc>
    <g id="Page-1" stroke="none" stroke-width="1" fill="none" fill-rule="evenodd">
        <g id="Monogram" fill-rule="nonzero">
            <rect id="Rectangle-path" fill="#12100E" x="0" y="0" width="48" height="48" rx="10"></rect>
            <path d="M11.4545428,16.053109 C11.4946062,15.6572695 11.3436554,15.2660261 11.0480787,14.9996111 L8.03723335,11.3725682 L8.03723335,10.8307692 L17.3859082,10.8307692 L24.6119371,26.6783882 L30.9648209,10.8307692 L39.8769231,10.8307692 L39.8769231,11.3725682 L37.3026503,13.8407633 C37.0807198,14.0099317 36.9706309,14.287972 37.0166201,14.5631619 L37.0166201,32.6983766 C36.9706309,32.9735665 37.0807198,33.2516066 37.3026503,33.4207751 L39.8167062,35.8889703 L39.8167062,36.4307692 L27.1711557,36.4307692 L27.1711557,35.8889703 L29.775537,33.3605753 C30.0314587,33.1047257 30.0314587,33.0294759 30.0314587,32.6381767 L30.0314587,17.9795053 L22.7903756,36.3705694 L21.8118509,36.3705694 L13.3814839,17.9795053 L13.3814839,30.3054311 C13.3111945,30.8236478 13.4833034,31.3453785 13.8481649,31.7201285 L17.2353659,35.8287705 L17.2353659,36.3705694 L7.63076923,36.3705694 L7.63076923,35.8287705 L11.0179703,31.7201285 C11.3801753,31.3447572 11.5422483,30.8195655 11.4545428,30.3054311 L11.4545428,16.053109 Z" id="Shape" fill="#FFFFFF"></path>
        </g>
    </g>
</svg>